# Blender 5.1.1
# www.blender.org
mtllib Highway_Cross.mtl
o Highway_Cross
v 191.151794 -0.348379 8.359836
v 215.441864 -0.348379 8.359838
v 191.151794 -0.348379 -15.930241
v 215.441864 -0.348379 -15.930239
v 212.649338 -0.230199 8.359836
v 212.649353 -0.230199 5.574340
v 215.441864 -0.230199 8.359838
v 215.441864 -0.230199 5.574340
v 212.649353 -0.348379 5.574340
v 212.649338 -0.348379 8.359836
v 215.441864 -0.348379 5.574340
v 193.944305 -0.348379 8.359836
v 193.944305 -0.348379 5.574340
v 191.151794 -0.348379 5.574340
v 193.944305 -0.230199 5.574340
v 193.944305 -0.230199 8.359836
v 191.151794 -0.230199 5.574340
v 191.151794 -0.230199 8.359836
v 193.937286 -0.348379 -13.144743
v 193.937302 -0.348379 -15.930239
v 191.151794 -0.348379 -13.144743
v 193.937302 -0.230199 -15.930239
v 193.937286 -0.230199 -13.144743
v 191.151794 -0.230199 -15.930241
v 191.151794 -0.230199 -13.144743
v 215.441864 -0.348379 -13.144743
v 212.656372 -0.348379 -13.144743
v 212.656372 -0.348379 -15.930239
v 215.441864 -0.230199 -15.930239
v 215.441864 -0.230199 -13.144743
v 212.656372 -0.230199 -15.930239
v 212.656372 -0.230199 -13.144743
vn -0.0000 1.0000 -0.0000
vn -0.0000 -0.0000 -1.0000
vn -0.0000 -0.0000 1.0000
vn 1.0000 -0.0000 -0.0000
vn -1.0000 -0.0000 -0.0000
vt 2.150458 -0.202602
vt 2.150459 1.640389
vt -0.278550 1.640389
vt -0.278549 -0.202603
vt 6.788097 0.487268
vt 6.343835 0.487268
vt 6.343836 0.506069
vt 6.788097 0.506069
vt 6.343831 0.487268
vt 6.788091 0.487268
vt 6.788091 0.506069
vt 6.343830 0.506069
vt 3.513882 -0.254746
vt 3.070740 -0.254746
vt 3.070740 -0.235945
vt 3.513882 -0.235944
vt 2.459501 4.596757
vt 1.919721 4.596756
vt 1.919721 4.188141
vt 2.459502 4.188140
vt 3.070730 -0.254746
vt 3.513872 -0.254746
vt 3.513872 -0.235944
vt 3.070731 -0.235944
vt -1.956011 4.213292
vt -1.956012 4.213305
vt 2.967110 4.213305
vt 2.967110 4.213292
vt 2.459502 1.451115
vt 1.919720 1.451115
vt 1.919720 1.042500
vt 2.459502 1.042499
vt 3.513882 -0.254746
vt 3.070738 -0.254746
vt 3.070739 -0.235944
vt 3.513882 -0.235945
vt 2.923805 0.487268
vt 3.368061 0.487268
vt 3.368061 0.506069
vt 2.923805 0.506069
vt 2.923805 0.506069
vt 3.368061 0.506069
vt -1.956014 4.213198
vt -1.956013 4.213210
vt 2.967108 4.213210
vt 2.967108 4.213199
vt -1.707721 1.450087
vt -2.247504 1.450087
vt -2.247504 1.042498
vt -1.707721 1.042498
vt 0.092736 -0.254746
vt -0.350407 -0.254746
vt -0.350407 -0.235944
vt 0.092736 -0.235944
vt 2.923805 0.487267
vt 3.366947 0.487267
vt 3.366947 0.506069
vt 2.923805 0.506069
vt 3.366947 0.487267
vt 2.923805 0.487267
vt 2.923805 0.506068
vt 3.366947 0.506068
vt 0.092735 -0.254746
vt 0.092735 -0.235944
vt -1.707721 4.596755
vt -2.247505 4.596757
vt -2.247505 4.189166
vt -1.707721 4.189167
vt 0.092736 -0.254746
vt 0.092736 -0.235944
vt 6.344949 0.487267
vt 6.788092 0.487268
vt 6.788092 0.506069
vt 6.344949 0.506069
vt 6.788091 0.487267
vt 6.344949 0.487267
vt 6.344949 0.506068
vt 6.788092 0.506068
s 0
usemtl Walkway
f 11/5/2 9/6/2 6/7/2 8/8/2
f 10/9/3 2/10/3 7/11/3 5/12/3
f 2/13/4 11/14/4 8/15/4 7/16/4
f 7/17/1 8/18/1 6/19/1 5/20/1
f 9/21/5 10/22/5 5/23/5 6/24/5
f 14/25/5 1/26/5 18/27/5 17/28/5
f 16/29/1 15/30/1 17/31/1 18/32/1
f 12/33/4 13/34/4 15/35/4 16/36/4
f 1/37/3 12/38/3 16/39/3 18/40/3
f 13/38/2 14/37/2 17/41/2 15/42/2
f 3/43/5 21/44/5 25/45/5 24/46/5
f 23/47/1 22/48/1 24/49/1 25/50/1
f 19/51/4 20/52/4 22/53/4 23/54/4
f 21/55/3 19/56/3 23/57/3 25/58/3
f 20/59/2 3/60/2 24/61/2 22/62/2
f 28/52/5 27/63/5 32/64/5 31/53/5
f 30/65/1 29/66/1 31/67/1 32/68/1
f 26/69/4 4/52/4 29/53/4 30/70/4
f 27/71/3 26/72/3 30/73/3 32/74/3
f 4/75/2 28/76/2 31/77/2 29/78/2
usemtl Road_Empty
f 1/1/1 2/2/1 4/3/1 3/4/1
