# Blender 5.1.1
# www.blender.org
mtllib Highway_End.mtl
o Highway_End
v 155.538101 -0.348379 -13.144759
v 155.538101 -0.348379 -3.785215
v 168.538101 -0.348379 -13.144754
v 168.538101 -0.348379 -3.785212
v 155.538101 -0.348379 -15.930254
v 168.538101 -0.348379 -15.930250
v 168.538101 -0.230199 -13.144754
v 155.538101 -0.230199 -13.144759
v 168.538101 -0.230199 -15.930250
v 155.538101 -0.230199 -15.930254
v 155.538101 -0.348379 8.359825
v 168.538101 -0.348379 8.359827
v 168.538101 -0.348379 5.574331
v 168.538101 -0.230199 8.359827
v 155.538101 -0.230199 8.359825
v 168.538101 -0.230199 5.574333
v 155.538101 -0.230199 5.574329
v 155.538101 -0.348379 5.574327
v 152.752609 -0.348379 -15.930254
v 152.752609 -0.348379 -13.144759
v 152.752609 -0.230199 -15.930254
v 152.752609 -0.230199 -13.144759
v 152.752609 -0.348379 8.359825
v 152.752609 -0.348379 5.574329
v 152.752609 -0.230199 5.574329
v 152.752609 -0.230199 8.359825
vn -0.0000 1.0000 -0.0000
vn -0.0000 -0.0000 -1.0000
vn -0.0000 -0.0000 1.0000
vn 1.0000 -0.0000 -0.0000
vn -1.0000 -0.0000 -0.0000
vn -0.0000 -1.0000 -0.0000
vt 0.000000 0.009278
vt 0.935954 0.009278
vt 0.935954 0.995643
vt 0.000000 0.995643
vt 2.923805 0.487267
vt 0.855644 0.487267
vt 0.855644 0.506068
vt 2.923805 0.506068
vt 0.769890 -0.451116
vt 0.769891 1.451116
vt 0.230110 1.451116
vt 0.230109 -0.451116
vt 0.855644 0.487267
vt 2.923805 0.487267
vt 2.923805 0.506069
vt 0.855644 0.506069
vt 0.412502 0.487267
vt 0.412502 0.506069
vt 0.769891 0.251862
vt 0.230110 0.251862
vt 0.230110 0.665425
vt 0.769891 0.665425
vt 2.923805 0.487268
vt 0.855645 0.487268
vt 0.855644 0.506069
vt 2.923805 0.506069
vt 2.459498 -0.451116
vt 2.459499 1.451116
vt 1.919718 1.451116
vt 1.919718 -0.451116
vt 0.855644 0.487268
vt 2.923805 0.506069
vt 0.855644 0.506069
vt 0.412502 0.506069
vt 0.412502 0.487268
vt 2.459498 0.251862
vt 1.919719 0.251862
vt 1.919718 0.665425
vt 2.459499 0.665425
vt 1.064045 0.009278
vt 1.999999 0.009278
vt 2.000000 0.995643
vt 1.064046 0.995644
vt -0.350408 -0.254746
vt 0.092735 -0.254746
vt 0.092735 -0.235944
vt -0.350408 -0.235944
vt 0.230110 -0.858705
vt 0.769890 -0.858705
vt 0.412502 0.506069
vt 0.412502 0.487267
vt 3.070739 -0.254746
vt 3.513880 -0.254746
vt 3.513880 -0.235944
vt 3.070739 -0.235944
vt 1.919718 -0.858705
vt 2.459499 -0.858705
vt 0.092743 -0.254746
vt 0.092742 -0.235945
vt 0.092742 -0.254746
vt -1.707713 -0.451115
vt -1.707712 -0.858703
s 0
usemtl Road
f 1/1/1 2/2/1 4/3/1 3/4/1
f 2/40/1 18/41/1 13/42/1 4/43/1
f 5/44/6 1/45/6 20/45/6 19/44/6
f 18/52/6 11/53/6 23/53/6 24/52/6
f 18/52/6 24/52/6 20/58/6 1/58/6
usemtl Walkway
f 6/5/2 5/6/2 10/7/2 9/8/2
f 8/9/1 7/10/1 9/11/1 10/12/1
f 1/13/3 3/14/3 7/15/3 8/16/3
f 10/7/2 5/6/2 19/17/2 21/18/2
f 3/19/4 6/20/4 9/21/4 7/22/4
f 13/23/2 18/24/2 17/25/2 16/26/2
f 15/27/1 14/28/1 16/29/1 17/30/1
f 11/31/3 12/23/3 14/32/3 15/33/3
f 11/31/3 15/33/3 26/34/3 23/35/3
f 12/36/4 13/37/4 16/38/4 14/39/4
f 19/44/5 20/45/5 22/46/5 21/47/5
f 8/9/1 10/12/1 21/48/1 22/49/1
f 1/13/3 8/16/3 22/50/3 20/51/3
f 24/52/5 23/53/5 26/54/5 25/55/5
f 17/25/4 18/24/4 1/24/4 8/25/4
f 15/27/1 17/30/1 25/56/1 26/57/1
f 24/52/5 25/55/5 22/59/5 20/60/5
f 25/56/1 17/30/1 8/61/1 22/62/1
