# Blender 5.1.1
# www.blender.org
mtllib Highway_Join_2.mtl
o Highway_Join_2
v 152.752609 -0.348381 49.998962
v 168.538101 -0.348381 49.998970
v 152.752609 -0.348381 68.718048
v 152.752609 -0.348381 59.358509
v 168.538101 -0.348381 59.358509
v 168.538101 -0.348381 68.718056
vn -0.0000 1.0000 -0.0000
vt 0.000000 -0.243698
vt 0.935954 -0.243698
vt 0.935954 0.954014
vt 0.000000 0.954014
vt 1.064045 -0.243698
vt 1.999999 -0.243698
vt 2.000000 0.954014
vt 1.064046 0.954014
s 0
usemtl Road
f 1/1/1 4/2/1 5/3/1 2/4/1
f 4/5/1 3/6/1 6/7/1 5/8/1
