# Blender 5.1.1
# www.blender.org
mtllib Road_End.mtl
o Road_End
v 140.761688 -0.348381 -38.254513
v 140.761688 -0.348381 -28.254517
v 153.761688 -0.348381 -38.254509
v 153.761688 -0.348381 -28.254513
v 140.761688 -0.348381 -41.040009
v 153.761688 -0.348381 -41.040005
v 153.761688 -0.230201 -38.254509
v 140.761688 -0.230201 -38.254513
v 153.761688 -0.230201 -41.040005
v 140.761688 -0.230201 -41.040009
v 140.761688 -0.348381 -25.469021
v 153.761688 -0.348381 -25.469017
v 153.761688 -0.230201 -25.469017
v 140.761688 -0.230201 -25.469021
v 153.761688 -0.230201 -28.254513
v 140.761688 -0.230201 -28.254517
v 137.976196 -0.348381 -41.040009
v 137.976196 -0.348381 -25.469021
v 137.976196 -0.230201 -25.469021
v 137.976196 -0.230201 -41.040009
vn -0.0000 1.0000 -0.0000
vn -0.0000 -0.0000 -1.0000
vn -0.0000 -0.0000 1.0000
vn -1.0000 -0.0000 -0.0000
vn 1.0000 -0.0000 -0.0000
vt 0.000000 0.009278
vt 1.000000 0.009278
vt 1.000000 0.995643
vt 0.000000 0.995643
vt 0.187996 0.487267
vt -1.880165 0.487267
vt -1.880165 0.506068
vt 0.187996 0.506068
vt 0.769890 -0.451116
vt 0.769891 1.451116
vt 0.230110 1.451116
vt 0.230109 -0.451116
vt -1.880165 0.487267
vt 0.187996 0.487267
vt 0.187996 0.506069
vt -1.880165 0.506069
vt 0.230109 0.251862
vt 0.769890 0.251862
vt 0.769890 0.665425
vt 0.230109 0.665425
vt 0.092735 -0.254746
vt -0.350408 -0.254746
vt -0.350408 -0.235944
vt 0.092735 -0.235944
vt 0.187996 0.487268
vt -1.880165 0.487268
vt -1.880165 0.506069
vt 0.187996 0.506069
vt 0.187996 0.506069
vt -1.880165 0.506069
vt 2.126768 -0.254746
vt 1.683626 -0.254746
vt 1.683626 -0.235944
vt 2.126768 -0.235944
vt -1.956011 -1.997949
vt -1.956011 -1.998002
vt 2.967110 -1.998002
vt 2.967110 -1.997949
vt -2.247499 -0.858706
vt 0.769891 -0.858705
vt 0.769890 -0.451116
vt -2.247497 -0.451117
vt -0.350408 -0.254746
vt 2.126768 -0.254746
vt 2.126768 -0.235944
vt -0.350408 -0.235944
vt -2.323307 0.487267
vt -2.323307 0.506068
vt -2.323307 0.487268
vt -2.323307 0.506069
s 0
usemtl Road
f 1/1/1 2/2/1 4/3/1 3/4/1
usemtl Walkway
f 6/5/2 5/6/2 10/7/2 9/8/2
f 8/9/1 7/10/1 9/11/1 10/12/1
f 1/13/3 3/14/3 7/15/3 8/16/3
f 5/17/4 1/18/4 8/19/4 10/20/4
f 3/21/5 6/22/5 9/23/5 7/24/5
f 4/25/2 2/26/2 16/27/2 15/28/2
f 14/9/1 13/10/1 15/11/1 16/12/1
f 11/26/3 12/25/3 13/29/3 14/30/3
f 2/17/4 11/18/4 14/19/4 16/20/4
f 12/31/5 4/32/5 15/33/5 13/34/5
f 11/35/5 5/36/5 10/37/5 14/38/5
f 20/39/1 19/40/1 14/41/1 10/42/1
f 17/43/4 18/44/4 19/45/4 20/46/4
f 5/6/2 17/47/2 20/48/2 10/7/2
f 18/49/3 11/26/3 14/30/3 19/50/3
