# Blender 5.1.2
# www.blender.org
mtllib Sign_Crossing.mtl
o Sign_Crossing
v 152.494888 1.424318 -23.290281
v 152.494888 1.703504 -23.573551
v 152.510071 1.424318 -23.290281
v 152.510071 1.703504 -23.573551
v 152.510071 -0.230201 -23.595980
v 152.510071 -0.230201 -23.551113
v 152.510071 1.539298 -23.551115
v 152.510071 1.539298 -23.595980
v 152.552505 -0.230201 -23.595982
v 152.552505 -0.230201 -23.551113
v 152.552505 1.539298 -23.551113
v 152.552505 1.539298 -23.595982
v 152.494888 1.424318 -23.856817
v 152.494888 1.145133 -23.573547
v 152.510071 1.424318 -23.856817
v 152.510071 1.145133 -23.573547
vn -0.0000 0.7122 0.7020
vn -0.0000 0.7122 -0.7020
vn -0.0000 -1.0000 -0.0000
vn 1.0000 -0.0000 -0.0000
vn -1.0000 -0.0000 -0.0000
vn -0.0000 -0.0000 -1.0000
vn -0.0000 -0.0000 1.0000
vn -0.0000 1.0000 -0.0000
vn -0.0000 -0.7122 -0.7020
vn -0.0000 -0.7122 0.7020
vt 0.545467 0.228080
vt 0.545467 0.224981
vt 0.656197 0.224981
vt 0.656197 0.228080
vt 0.656196 0.228080
vt 0.656196 0.224981
vt 0.545468 0.224981
vt 0.545468 0.228080
vt 0.606149 0.223202
vt 0.713545 0.223202
vt 0.713545 0.220277
vt 0.606149 0.220277
vt 0.288706 0.345378
vt 0.235008 0.240857
vt 0.342403 0.240857
vt 0.278540 0.263490
vt 0.278540 0.272134
vt 0.619462 0.272134
vt 0.619462 0.263490
vt 0.278540 0.263490
vt 0.619462 0.263490
vt 0.619462 0.272134
vt 0.278540 0.272134
vt 0.249925 0.225035
vt 0.590555 0.225035
vt 0.590555 0.216866
vt 0.249925 0.216866
vt 0.664169 0.223202
vt 0.655525 0.223202
vt 0.655525 0.231378
vt 0.664169 0.231378
vt 0.590555 0.225035
vt 0.249924 0.225035
vt 0.249924 0.216866
vt 0.590555 0.216866
vt 0.664169 0.223202
vt 0.664169 0.231378
vt 0.004092 0.759631
vt 0.175705 0.759631
vt 0.089897 0.845415
vt 0.175703 0.759631
vt 0.004090 0.759631
vt 0.089898 0.673848
s 0
usemtl Atlas_Traffic_Signs
f 1/1/1 3/2/1 4/3/1 2/4/1
f 2/5/2 4/6/2 15/7/2 13/8/2
f 15/9/3 3/10/3 1/11/3 13/12/3
f 4/13/4 3/14/4 15/15/4
f 5/16/5 6/17/5 7/18/5 8/19/5
f 9/20/4 12/21/4 11/22/4 10/23/4
f 5/24/6 8/25/6 12/26/6 9/27/6
f 6/28/3 5/29/3 9/30/3 10/31/3
f 7/32/7 6/33/7 10/34/7 11/35/7
f 8/29/8 7/36/8 11/37/8 12/30/8
f 13/38/5 1/39/5 2/40/5
f 13/1/9 15/2/9 16/3/9 14/4/9
f 14/5/10 16/6/10 3/7/10 1/8/10
f 16/13/4 15/14/4 3/15/4
f 1/41/5 13/42/5 14/43/5
