# Blender 5.1.2
# www.blender.org
mtllib Sign_SL15.mtl
o Sign_SL15
v 152.594940 1.309496 -26.196762
v 152.594940 1.309496 -25.758265
v 152.594940 1.931189 -26.196762
v 152.594940 1.931189 -25.758265
v 152.610123 1.931189 -26.196762
v 152.610123 1.309496 -26.196762
v 152.610123 1.309496 -25.758265
v 152.610123 1.931189 -25.758265
v 152.610123 -0.230201 -25.999945
v 152.610123 -0.230201 -25.955078
v 152.610123 1.974896 -25.955078
v 152.610123 1.974896 -25.999945
v 152.652557 -0.230201 -25.999947
v 152.652557 -0.230201 -25.955078
v 152.652557 1.974896 -25.955078
v 152.652557 1.974896 -25.999947
vn -0.0000 -0.0000 1.0000
vn -0.0000 -0.0000 -1.0000
vn -0.0000 -1.0000 -0.0000
vn -0.0000 1.0000 -0.0000
vn 1.0000 -0.0000 -0.0000
vn -1.0000 -0.0000 -0.0000
vt 0.548025 0.230910
vt 0.548025 0.227987
vt 0.652460 0.227987
vt 0.652460 0.230910
vt 0.652460 0.230910
vt 0.652460 0.227987
vt 0.548025 0.227987
vt 0.548025 0.230910
vt 0.512545 0.221644
vt 0.642522 0.221644
vt 0.642522 0.218719
vt 0.512545 0.218719
vt 0.474732 0.343176
vt 0.344757 0.343176
vt 0.344757 0.238656
vt 0.474732 0.238656
vt 0.226965 0.365255
vt 0.226965 0.373899
vt 0.651812 0.373899
vt 0.651812 0.365255
vt 0.226965 0.365255
vt 0.651812 0.365255
vt 0.651812 0.373899
vt 0.226965 0.373899
vt 0.250182 0.227987
vt 0.674684 0.227987
vt 0.674684 0.219818
vt 0.250182 0.219818
vt 0.581856 0.221645
vt 0.573212 0.221645
vt 0.573211 0.229821
vt 0.581856 0.229821
vt 0.674684 0.227987
vt 0.250181 0.227987
vt 0.250181 0.219818
vt 0.674684 0.219818
vt 0.573212 0.221645
vt 0.581856 0.221645
vt 0.573211 0.229821
vt 0.488731 0.828403
vt 0.626755 0.828403
vt 0.626853 0.999891
vt 0.488500 0.999891
s 0
usemtl Atlas_Traffic_Signs
f 2/1/1 7/2/1 8/3/1 4/4/1
f 3/5/2 5/6/2 6/7/2 1/8/2
f 6/9/3 7/10/3 2/11/3 1/12/3
f 8/10/4 5/9/4 3/12/4 4/11/4
f 5/13/5 8/14/5 7/15/5 6/16/5
f 9/17/6 10/18/6 11/19/6 12/20/6
f 13/21/5 16/22/5 15/23/5 14/24/5
f 9/25/2 12/26/2 16/27/2 13/28/2
f 10/29/3 9/30/3 13/31/3 14/32/3
f 11/33/1 10/34/1 14/35/1 15/36/1
f 12/37/4 11/38/4 15/32/4 16/39/4
f 1/40/6 2/41/6 4/42/6 3/43/6
