# Blender 5.1.2
# www.blender.org
mtllib Sign_Yield.mtl
o Sign_Yield
v 152.637375 1.740041 -27.741970
v 152.637375 1.740041 -28.299383
v 152.637375 1.197548 -28.020672
v 152.637375 1.197548 -28.020672
v 152.652557 1.197548 -28.020672
v 152.652557 1.740041 -27.741970
v 152.652557 1.740041 -28.299383
v 152.652557 1.197548 -28.020672
v 152.652557 -0.348381 -28.043108
v 152.652557 -0.348381 -27.998241
v 152.652557 1.766770 -27.998241
v 152.652557 1.766770 -28.043108
v 152.694992 -0.348381 -28.043110
v 152.694992 -0.348381 -27.998241
v 152.694992 1.766770 -27.998241
v 152.694992 1.766770 -28.043110
v 152.637375 1.468794 -27.881321
v 152.637375 1.468794 -28.160028
v 152.637375 1.740041 -28.020678
v 152.637375 1.197548 -28.020672
vn -0.0000 -0.4570 -0.8895
vn -0.0000 -0.4570 0.8895
vn -0.0000 1.0000 -0.0000
vn -0.0000 -1.0000 -0.0000
vn 1.0000 -0.0000 -0.0000
vn -1.0000 -0.0000 -0.0000
vn -0.0000 -0.0000 -1.0000
vn -0.0000 -0.0000 1.0000
vt 0.679319 0.228080
vt 0.679319 0.224980
vt 0.568590 0.224981
vt 0.568590 0.228080
vt 0.623955 0.228080
vt 0.568590 0.228080
vt 0.568590 0.224981
vt 0.679319 0.224981
vt 0.679319 0.228080
vt 0.623955 0.228080
vt 0.713545 0.223202
vt 0.606149 0.223202
vt 0.606149 0.220277
vt 0.659847 0.220277
vt 0.713545 0.220277
vt 0.288705 0.240857
vt 0.342403 0.345378
vt 0.235009 0.345378
vt 0.278540 0.263490
vt 0.278540 0.272134
vt 0.686058 0.272134
vt 0.686058 0.263490
vt 0.278540 0.263490
vt 0.686058 0.263490
vt 0.686058 0.272134
vt 0.278540 0.272134
vt 0.249925 0.225035
vt 0.657093 0.225035
vt 0.657093 0.216866
vt 0.249925 0.216866
vt 0.664169 0.223202
vt 0.655525 0.223202
vt 0.655525 0.231378
vt 0.664169 0.231378
vt 0.657093 0.225035
vt 0.249924 0.225035
vt 0.249924 0.216866
vt 0.657093 0.216866
vt 0.664169 0.223202
vt 0.664169 0.231378
vt 0.202772 0.911482
vt 0.249305 0.840021
vt 0.295835 0.911482
vt 0.342367 0.998978
vt 0.156239 0.998978
s 0
usemtl Atlas_Traffic_Signs
f 2/1/1 7/2/1 8/3/1 4/4/1 18/5/1
f 3/6/2 5/7/2 6/8/2 1/9/2 17/10/2
f 6/11/3 7/12/3 2/13/3 19/14/3 1/15/3
f 8/16/4 5/16/4 3/16/4 20/16/4 4/16/4
f 5/16/5 8/16/5 7/17/5 6/18/5
f 9/19/6 10/20/6 11/21/6 12/22/6
f 13/23/5 16/24/5 15/25/5 14/26/5
f 9/27/7 12/28/7 16/29/7 13/30/7
f 10/31/4 9/32/4 13/33/4 14/34/4
f 11/35/8 10/36/8 14/37/8 15/38/8
f 12/32/3 11/39/3 15/40/3 16/33/3
f 18/41/6 4/42/6 3/42/6 17/43/6 1/44/6 2/45/6
