# Blender 5.1.2
# www.blender.org
mtllib Sign_Stop.mtl
o Sign_Stop
v 152.652557 -0.348381 -27.273872
v 152.652557 -0.348381 -27.229006
v 152.652557 1.766770 -27.229006
v 152.652557 1.766770 -27.273872
v 152.694992 -0.348381 -27.273874
v 152.694992 -0.348381 -27.229006
v 152.694992 1.766770 -27.229006
v 152.694992 1.766770 -27.273874
v 152.655853 1.264120 -27.390459
v 152.655853 1.740953 -27.390459
v 152.655853 1.264120 -27.112415
v 152.655853 1.740953 -27.112415
v 152.655853 1.423064 -27.489855
v 152.655853 1.582009 -27.489855
v 152.655853 1.582008 -27.013021
v 152.655853 1.423064 -27.013021
v 152.633301 1.582009 -27.489855
v 152.633301 1.740953 -27.390459
v 152.633301 1.264120 -27.112415
v 152.633301 1.264120 -27.390459
v 152.633301 1.423064 -27.013021
v 152.633301 1.740953 -27.112415
v 152.633301 1.423064 -27.489855
v 152.633301 1.582008 -27.013021
vn -1.0000 -0.0000 -0.0000
vn -0.0000 -0.0000 -1.0000
vn 1.0000 -0.0000 -0.0000
vn -0.0000 -0.0000 1.0000
vn -0.0000 -1.0000 -0.0000
vn -0.0000 1.0000 -0.0000
vn -0.0000 0.5302 0.8479
vn -0.0000 -0.5302 -0.8479
vn -0.0000 -0.5302 0.8479
vn -0.0000 0.5302 -0.8479
vt 0.278540 0.263490
vt 0.278540 0.272134
vt 0.686058 0.272134
vt 0.686058 0.263490
vt 0.249925 0.225035
vt 0.657093 0.225035
vt 0.657093 0.216866
vt 0.249925 0.216866
vt 0.278540 0.263490
vt 0.686058 0.263490
vt 0.686058 0.272134
vt 0.278540 0.272134
vt 0.657093 0.225035
vt 0.249924 0.225035
vt 0.249924 0.216866
vt 0.657093 0.216866
vt 0.664169 0.223202
vt 0.655525 0.223202
vt 0.655525 0.231378
vt 0.664169 0.231378
vt 0.470477 0.228995
vt 0.489621 0.198381
vt 0.543175 0.198381
vt 0.562319 0.228995
vt 0.489621 0.290223
vt 0.470477 0.259609
vt 0.562319 0.259609
vt 0.543175 0.290223
vt 0.150203 0.893728
vt 0.000035 0.893728
vt 0.043540 0.849746
vt 0.106850 0.849746
vt 0.106850 0.999653
vt 0.043540 0.999653
vt 0.000171 0.955701
vt 0.150066 0.955701
vt 0.533398 0.259010
vt 0.533398 0.263598
vt 0.501052 0.263598
vt 0.501052 0.259010
vt 0.501052 0.259010
vt 0.533398 0.263598
vt 0.533398 0.259010
vt 0.490488 0.259136
vt 0.490488 0.263472
vt 0.543963 0.263472
vt 0.543963 0.259136
vt 0.565744 0.259010
vt 0.565744 0.263598
vt 0.468706 0.259010
vt 0.468706 0.263598
vt 0.468706 0.263598
vt 0.468706 0.259010
vt 0.565744 0.263598
vt 0.565744 0.259010
vt 0.664169 0.223202
vt 0.664169 0.231378
s 0
usemtl Atlas_Traffic_Signs
f 1/1/1 2/2/1 3/3/1 4/4/1
f 1/5/2 4/6/2 8/7/2 5/8/2
f 5/9/3 8/10/3 7/11/3 6/12/3
f 3/13/4 2/14/4 6/15/4 7/16/4
f 2/17/5 1/18/5 5/19/5 6/20/5
f 16/21/3 11/22/3 9/23/3 13/24/3
f 12/25/3 15/26/3 14/27/3 10/28/3
f 15/26/3 16/21/3 13/24/3 14/27/3
f 21/29/1 23/30/1 20/31/1 19/32/1
f 22/33/1 18/34/1 17/35/1 24/36/1
f 24/36/1 17/35/1 23/30/1 21/29/1
f 15/37/4 24/38/4 21/39/4 16/40/4
f 13/41/2 23/39/2 17/42/2 14/43/2
f 10/44/6 18/45/6 22/46/6 12/47/6
f 11/47/5 19/46/5 20/45/5 9/44/5
f 12/48/7 22/49/7 24/38/7 15/37/7
f 9/50/8 20/51/8 23/39/8 13/41/8
f 16/40/9 21/39/9 19/52/9 11/53/9
f 14/43/10 17/42/10 18/54/10 10/55/10
f 4/18/6 3/56/6 7/57/6 8/19/6
