# Blender 5.1.2
# www.blender.org
mtllib Sign_Yield_Plate.mtl
o Sign_Yield_Plate
v 151.034042 1.740041 -27.741970
v 151.034042 1.740041 -28.299385
v 151.034042 1.197548 -28.020672
v 151.034042 1.197548 -28.020672
v 151.049240 1.197548 -28.020672
v 151.049240 1.740041 -27.741970
v 151.049240 1.740041 -28.299385
v 151.049240 1.197548 -28.020672
v 151.034042 1.468794 -27.881321
v 151.034042 1.468794 -28.160028
v 151.034042 1.740041 -28.020678
v 151.034042 1.197548 -28.020672
vn -0.0000 -0.4570 -0.8895
vn -0.0000 -0.4570 0.8895
vn -0.0000 1.0000 -0.0000
vn -0.0000 -1.0000 -0.0000
vn 1.0000 -0.0000 -0.0000
vn -1.0000 -0.0000 -0.0000
vt 0.679319 0.228080
vt 0.679319 0.224980
vt 0.568590 0.224981
vt 0.568590 0.228080
vt 0.623955 0.228080
vt 0.568590 0.228080
vt 0.568590 0.224981
vt 0.679319 0.224981
vt 0.679319 0.228080
vt 0.623955 0.228080
vt 0.713545 0.223202
vt 0.606149 0.223202
vt 0.606149 0.220277
vt 0.659847 0.220277
vt 0.713545 0.220277
vt 0.288705 0.240857
vt 0.342403 0.345378
vt 0.235009 0.345378
vt 0.202772 0.911482
vt 0.249305 0.840021
vt 0.295835 0.911482
vt 0.342367 0.998978
vt 0.156239 0.998978
s 0
usemtl Atlas_Traffic_Signs
f 2/1/1 7/2/1 8/3/1 4/4/1 10/5/1
f 3/6/2 5/7/2 6/8/2 1/9/2 9/10/2
f 6/11/3 7/12/3 2/13/3 11/14/3 1/15/3
f 8/16/4 5/16/4 3/16/4 12/16/4 4/16/4
f 5/16/5 8/16/5 7/17/5 6/18/5
f 10/19/6 4/20/6 3/20/6 9/21/6 1/22/6 2/23/6
