# Blender 5.1.2
# www.blender.org
mtllib Sign_Stop_Plate.mtl
o Sign_Stop_Plate
v 151.052536 1.264120 -27.390459
v 151.052536 1.740953 -27.390459
v 151.052536 1.264120 -27.112415
v 151.052536 1.740953 -27.112415
v 151.052536 1.423064 -27.489855
v 151.052536 1.582009 -27.489855
v 151.052536 1.582008 -27.013021
v 151.052536 1.423064 -27.013021
v 151.029984 1.582009 -27.489855
v 151.029984 1.740953 -27.390459
v 151.029984 1.264120 -27.112415
v 151.029984 1.264120 -27.390459
v 151.029984 1.423064 -27.013021
v 151.029984 1.740953 -27.112415
v 151.029984 1.423064 -27.489855
v 151.029984 1.582008 -27.013021
vn 1.0000 -0.0000 -0.0000
vn -1.0000 -0.0000 -0.0000
vn -0.0000 -0.0000 1.0000
vn -0.0000 -0.0000 -1.0000
vn -0.0000 1.0000 -0.0000
vn -0.0000 -1.0000 -0.0000
vn -0.0000 0.5302 0.8479
vn -0.0000 -0.5302 -0.8479
vn -0.0000 -0.5302 0.8479
vn -0.0000 0.5302 -0.8479
vt 0.470477 0.228995
vt 0.489621 0.198381
vt 0.543175 0.198381
vt 0.562319 0.228995
vt 0.489621 0.290223
vt 0.470477 0.259609
vt 0.562319 0.259609
vt 0.543175 0.290223
vt 0.150203 0.893728
vt 0.000035 0.893728
vt 0.043540 0.849746
vt 0.106850 0.849746
vt 0.106850 0.999653
vt 0.043540 0.999653
vt 0.000171 0.955701
vt 0.150066 0.955701
vt 0.533398 0.259010
vt 0.533398 0.263598
vt 0.501052 0.263598
vt 0.501052 0.259010
vt 0.501052 0.259010
vt 0.533398 0.263598
vt 0.533398 0.259010
vt 0.490488 0.259136
vt 0.490488 0.263472
vt 0.543963 0.263472
vt 0.543963 0.259136
vt 0.565744 0.259010
vt 0.565744 0.263598
vt 0.468706 0.259010
vt 0.468706 0.263598
vt 0.468706 0.263598
vt 0.468706 0.259010
vt 0.565744 0.263598
vt 0.565744 0.259010
s 0
usemtl Atlas_Traffic_Signs
f 8/1/1 3/2/1 1/3/1 5/4/1
f 4/5/1 7/6/1 6/7/1 2/8/1
f 7/6/1 8/1/1 5/4/1 6/7/1
f 13/9/2 15/10/2 12/11/2 11/12/2
f 14/13/2 10/14/2 9/15/2 16/16/2
f 16/16/2 9/15/2 15/10/2 13/9/2
f 7/17/3 16/18/3 13/19/3 8/20/3
f 5/21/4 15/19/4 9/22/4 6/23/4
f 2/24/5 10/25/5 14/26/5 4/27/5
f 3/27/6 11/26/6 12/25/6 1/24/6
f 4/28/7 14/29/7 16/18/7 7/17/7
f 1/30/8 12/31/8 15/19/8 5/21/8
f 8/20/9 13/19/9 11/32/9 3/33/9
f 6/23/10 9/22/10 10/34/10 2/35/10
