# Blender 5.1.2
# www.blender.org
mtllib Sign_WrongWay_Plate.mtl
o Sign_WrongWay_Plate
v 150.791504 1.374172 -22.511244
v 150.791504 1.316962 -22.454035
v 150.791504 1.316962 -21.893843
v 150.791504 1.374172 -21.836634
v 150.791504 1.859455 -22.454035
v 150.791504 1.802245 -22.511244
v 150.791504 1.802245 -21.836634
v 150.791504 1.859455 -21.893843
v 150.806702 1.802245 -22.511244
v 150.806702 1.859455 -22.454035
v 150.806702 1.316962 -22.454035
v 150.806702 1.374172 -22.511244
v 150.806702 1.374172 -21.836634
v 150.806702 1.316962 -21.893843
v 150.806702 1.859455 -21.893843
v 150.806702 1.802245 -21.836634
vn -0.0000 0.7071 -0.7071
vn -0.0000 0.7071 0.7071
vn -0.0000 -0.7071 0.7071
vn -0.0000 -0.7071 -0.7071
vn -1.0000 -0.0000 -0.0000
vn -0.0000 -0.0000 -1.0000
vn -0.0000 -1.0000 -0.0000
vn -0.0000 -0.0000 1.0000
vn -0.0000 1.0000 -0.0000
vn 1.0000 -0.0000 -0.0000
vt 0.523568 0.218719
vt 0.523568 0.221644
vt 0.512545 0.221644
vt 0.512545 0.218719
vt 0.631499 0.221644
vt 0.631499 0.218719
vt 0.642522 0.218719
vt 0.642522 0.221644
vt 0.512545 0.218719
vt 0.512545 0.221644
vt 0.492514 0.669258
vt 0.514852 0.650796
vt 0.733106 0.650796
vt 0.755416 0.669258
vt 0.755566 0.807395
vt 0.733242 0.825857
vt 0.514454 0.825857
vt 0.492158 0.807395
vt 0.641447 0.230910
vt 0.641447 0.227987
vt 0.559039 0.227987
vt 0.559039 0.230910
vt 0.559039 0.230910
vt 0.559039 0.227987
vt 0.641446 0.227987
vt 0.641446 0.230910
vt 0.474732 0.332153
vt 0.463709 0.343176
vt 0.355780 0.343176
vt 0.344757 0.332153
vt 0.344757 0.249678
vt 0.355780 0.238656
vt 0.463709 0.238656
vt 0.474732 0.249678
s 0
usemtl Atlas_Traffic_Signs
f 5/1/1 10/2/1 9/3/1 6/4/1
f 15/5/2 8/6/2 7/7/2 16/8/2
f 3/6/3 14/5/3 13/8/3 4/7/3
f 11/2/4 2/1/4 1/9/4 12/10/4
f 1/11/5 2/12/5 3/13/5 4/14/5 7/15/5 8/16/5 5/17/5 6/18/5
f 6/19/6 9/20/6 12/21/6 1/22/6
f 11/2/7 14/5/7 3/6/7 2/1/7
f 4/23/8 13/24/8 16/25/8 7/26/8
f 15/5/9 10/2/9 5/1/9 8/6/9
f 9/27/10 10/28/10 15/29/10 16/30/10 13/31/10 14/32/10 11/33/10 12/34/10
