# Blender 5.1.1
# www.blender.org
mtllib Traffic_Cone_2.mtl
o Traffic_Cone_2
v 131.766373 -0.313433 -14.809105
v 131.766373 0.386567 -14.666168
v 131.889984 -0.313433 -14.770908
v 131.801636 0.386567 -14.655270
v 131.966370 -0.313433 -14.670906
v 131.823441 0.386567 -14.626740
v 131.966370 -0.313433 -14.547302
v 131.823441 0.386567 -14.591469
v 131.889984 -0.313433 -14.447300
v 131.801636 0.386567 -14.562939
v 131.766373 -0.313433 -14.409103
v 131.766373 0.386567 -14.552040
v 131.642761 -0.313433 -14.447300
v 131.731110 0.386567 -14.562939
v 131.566376 -0.313433 -14.547302
v 131.709305 0.386567 -14.591469
v 131.566376 -0.313433 -14.670906
v 131.709305 0.386567 -14.626740
v 131.642761 -0.313433 -14.770908
v 131.731110 0.386567 -14.655270
v 131.453873 -0.313433 -14.296608
v 132.078873 -0.313433 -14.296608
v 131.453873 -0.313433 -14.921608
v 132.078873 -0.313433 -14.921608
v 131.453873 -0.359414 -14.921608
v 131.453873 -0.359414 -14.296608
v 132.078873 -0.359414 -14.296608
v 132.078873 -0.359414 -14.921608
vn -0.0000 0.2001 -0.9798
vn 0.5587 0.2033 -0.8041
vn 0.5614 0.2034 -0.8021
vn 0.9260 0.2089 -0.3145
vn 0.9267 0.2089 -0.3124
vn 0.9260 0.2089 0.3145
vn 0.9267 0.2089 0.3124
vn 0.5587 0.2033 0.8041
vn 0.5614 0.2034 0.8021
vn -0.0000 0.2001 0.9798
vn -0.5587 0.2033 0.8041
vn -0.5614 0.2034 0.8021
vn -0.9260 0.2089 0.3145
vn -0.9267 0.2089 0.3124
vn -0.9260 0.2089 -0.3145
vn -0.9267 0.2089 -0.3124
vn -0.0000 1.0000 -0.0000
vn -0.5587 0.2033 -0.8041
vn -0.5614 0.2034 -0.8021
vn -0.0000 -1.0000 -0.0000
vn 1.0000 -0.0000 -0.0000
vn -1.0000 -0.0000 -0.0000
vn -0.0000 -0.0000 -1.0000
vn -0.0000 -0.0000 1.0000
vt 0.500000 0.013672
vt 0.499999 0.933415
vt 0.522279 0.933415
vt 0.730505 0.013672
vt 0.215983 0.013672
vt 0.488556 0.933415
vt 0.506579 0.933415
vt 0.402470 0.013672
vt 0.615250 0.013672
vt 0.511141 0.933415
vt 0.488860 0.933415
vt 0.384750 0.013672
vt 0.470837 0.933415
vt 0.198263 0.013672
vt 0.477720 0.933415
vt 0.269495 0.013672
vt 0.419327 0.805242
vt 0.403705 0.786220
vt 0.419642 0.767300
vt 0.461052 0.755709
vt 0.512117 0.755875
vt 0.553332 0.767734
vt 0.568955 0.786756
vt 0.553017 0.805676
vt 0.511607 0.817267
vt 0.460542 0.817101
vt 0.529163 0.933415
vt 0.801737 0.013672
vt 0.750000 0.490000
vt 0.891068 0.444164
vt 0.978254 0.324164
vt 0.978254 0.175836
vt 0.891068 0.055836
vt 0.750000 0.010000
vt 0.608932 0.055836
vt 0.521746 0.175836
vt 0.521746 0.324164
vt 0.608932 0.444164
vt 0.235176 0.034330
vt 0.818178 0.034330
vt 0.818178 0.193793
vt 0.235176 0.193793
vt 0.207898 0.024977
vt 0.207898 0.178148
vt 0.785929 0.178148
vt 0.785929 0.024977
vt 0.226063 0.140804
vt 0.226063 0.115613
vt 0.773938 0.115613
vt 0.773938 0.140804
vt 0.773938 0.072124
vt 0.773938 0.019972
vt 0.226063 0.019972
vt 0.226063 0.072124
vt 0.766804 0.134800
vt 0.766804 0.101351
vt 0.283693 0.101351
vt 0.283693 0.134800
vt 0.283693 0.134800
vt 0.283693 0.101351
vt 0.766804 0.101351
vt 0.766804 0.134800
s 1
usemtl Traffic_Cone
f 1/1/1 2/2/1 4/3/2 3/4/3
f 3/5/3 4/6/2 6/7/4 5/8/5
f 5/9/5 6/10/4 8/11/6 7/12/7
f 7/12/7 8/11/6 10/13/8 9/14/9
f 9/4/9 10/3/8 12/2/10 11/1/10
f 11/1/10 12/2/10 14/15/11 13/16/12
f 13/14/12 14/13/11 16/11/13 15/12/14
f 15/12/14 16/11/13 18/10/15 17/9/16
s 0
f 4/17/17 2/18/17 20/19/17 18/20/17 16/21/17 14/22/17 12/23/17 10/24/17 8/25/17 6/26/17
s 1
f 17/9/16 18/10/15 20/27/18 19/28/19
f 19/16/19 20/15/18 2/2/1 1/1/1
s 0
f 1/29/20 3/30/20 5/31/20 7/32/20 9/33/20 11/34/20 13/35/20 15/36/20 17/37/20 19/38/20
f 21/39/17 22/40/17 24/41/17 23/42/17
f 26/43/20 25/44/20 28/45/20 27/46/20
f 22/47/21 27/48/21 28/49/21 24/50/21
f 23/51/22 25/52/22 26/53/22 21/54/22
f 24/55/23 28/56/23 25/57/23 23/58/23
f 21/59/24 26/60/24 27/61/24 22/62/24
